<mxfile host="65bd71144e">
    <diagram name="Page-1" id="uge8Uq6DLkfK-eYtB3qo">
        <mxGraphModel dx="836" dy="408" grid="0" gridSize="10" guides="1" tooltips="1" connect="1" arrows="1" fold="1" page="1" pageScale="1" pageWidth="3300" pageHeight="4681" math="0" shadow="0">
            <root>
                <mxCell id="0"/>
                <mxCell id="1" parent="0"/>
                <mxCell id="ykjGO0jz3OLnB_6HCK4Q-94" style="edgeStyle=orthogonalEdgeStyle;rounded=0;orthogonalLoop=1;jettySize=auto;html=1;" parent="1" source="JxBHjFyv43aqF_TuD2n9-1" target="JxBHjFyv43aqF_TuD2n9-3" edge="1">
                    <mxGeometry relative="1" as="geometry">
                        <Array as="points">
                            <mxPoint x="59" y="300"/>
                            <mxPoint x="59" y="420"/>
                        </Array>
                    </mxGeometry>
                </mxCell>
                <mxCell id="JxBHjFyv43aqF_TuD2n9-1" value="Outsystems&lt;br&gt;API Gateway" style="sketch=0;outlineConnect=0;fontColor=#232F3E;gradientColor=none;fillColor=#232F3D;strokeColor=none;dashed=0;verticalLabelPosition=bottom;verticalAlign=top;align=left;html=1;fontSize=12;fontStyle=0;aspect=fixed;pointerEvents=1;shape=mxgraph.aws4.servers;" parent="1" vertex="1">
                    <mxGeometry x="69" y="280" width="40" height="40" as="geometry"/>
                </mxCell>
                <mxCell id="ykjGO0jz3OLnB_6HCK4Q-95" style="edgeStyle=orthogonalEdgeStyle;rounded=0;orthogonalLoop=1;jettySize=auto;html=1;" parent="1" source="JxBHjFyv43aqF_TuD2n9-3" target="JxBHjFyv43aqF_TuD2n9-6" edge="1">
                    <mxGeometry relative="1" as="geometry"/>
                </mxCell>
                <mxCell id="JxBHjFyv43aqF_TuD2n9-3" value="Cloudflare" style="sketch=0;outlineConnect=0;fontColor=#232F3E;gradientColor=none;fillColor=#232F3D;strokeColor=none;dashed=0;verticalLabelPosition=top;verticalAlign=bottom;align=center;html=1;fontSize=12;fontStyle=0;aspect=fixed;pointerEvents=1;shape=mxgraph.aws4.internet;labelPosition=center;" parent="1" vertex="1">
                    <mxGeometry x="69" y="407.5" width="40.63" height="25" as="geometry"/>
                </mxCell>
                <mxCell id="JxBHjFyv43aqF_TuD2n9-7" value="Host Computer" style="fillColor=none;strokeColor=#5A6C86;verticalAlign=top;fontStyle=0;fontColor=#5A6C86;whiteSpace=wrap;html=1;movable=1;resizable=1;rotatable=1;deletable=1;editable=1;locked=0;connectable=1;align=left;" parent="1" vertex="1">
                    <mxGeometry x="159" y="10" width="690" height="730" as="geometry"/>
                </mxCell>
                <mxCell id="ykjGO0jz3OLnB_6HCK4Q-113" style="edgeStyle=orthogonalEdgeStyle;rounded=0;orthogonalLoop=1;jettySize=auto;html=1;" parent="1" source="JxBHjFyv43aqF_TuD2n9-6" target="ykjGO0jz3OLnB_6HCK4Q-112" edge="1">
                    <mxGeometry relative="1" as="geometry"/>
                </mxCell>
                <mxCell id="JxBHjFyv43aqF_TuD2n9-6" value="Cloudflare&lt;div&gt;Daemon&lt;/div&gt;" style="sketch=0;outlineConnect=0;fontColor=#232F3E;gradientColor=none;fillColor=#232F3D;strokeColor=none;dashed=0;verticalLabelPosition=top;verticalAlign=bottom;align=center;html=1;fontSize=12;fontStyle=0;aspect=fixed;pointerEvents=1;shape=mxgraph.aws4.internet;labelPosition=center;" parent="1" vertex="1">
                    <mxGeometry x="189" y="407.5" width="40.63" height="25" as="geometry"/>
                </mxCell>
                <mxCell id="JxBHjFyv43aqF_TuD2n9-10" value="Kubernetes" style="fillColor=none;strokeColor=#5A6C86;verticalAlign=top;fontStyle=0;fontColor=#5A6C86;whiteSpace=wrap;html=1;movable=1;resizable=1;rotatable=1;deletable=1;editable=1;locked=0;connectable=1;align=left;" parent="1" vertex="1">
                    <mxGeometry x="347" y="174" width="462" height="556" as="geometry"/>
                </mxCell>
                <mxCell id="JxBHjFyv43aqF_TuD2n9-45" value="UI" style="fillColor=none;strokeColor=#5A6C86;dashed=1;verticalAlign=top;fontStyle=0;fontColor=#5A6C86;whiteSpace=wrap;html=1;movable=1;resizable=1;rotatable=1;deletable=1;editable=1;locked=0;connectable=1;align=left;" parent="1" vertex="1">
                    <mxGeometry x="369" y="200" width="240" height="100" as="geometry"/>
                </mxCell>
                <mxCell id="JxBHjFyv43aqF_TuD2n9-42" style="edgeStyle=orthogonalEdgeStyle;rounded=0;orthogonalLoop=1;jettySize=auto;html=1;" parent="1" edge="1">
                    <mxGeometry relative="1" as="geometry">
                        <mxPoint x="460" y="160" as="sourcePoint"/>
                    </mxGeometry>
                </mxCell>
                <mxCell id="ykjGO0jz3OLnB_6HCK4Q-5" value="Backend Services" style="fillColor=none;strokeColor=#5A6C86;dashed=1;verticalAlign=top;fontStyle=0;fontColor=#5A6C86;whiteSpace=wrap;html=1;movable=1;resizable=1;rotatable=1;deletable=1;editable=1;locked=0;connectable=1;align=left;" parent="1" vertex="1">
                    <mxGeometry x="369" y="320" width="400" height="280" as="geometry"/>
                </mxCell>
                <mxCell id="ykjGO0jz3OLnB_6HCK4Q-109" style="edgeStyle=orthogonalEdgeStyle;rounded=0;orthogonalLoop=1;jettySize=auto;html=1;" parent="1" source="ykjGO0jz3OLnB_6HCK4Q-7" target="ykjGO0jz3OLnB_6HCK4Q-100" edge="1">
                    <mxGeometry relative="1" as="geometry"/>
                </mxCell>
                <mxCell id="ykjGO0jz3OLnB_6HCK4Q-110" style="edgeStyle=orthogonalEdgeStyle;rounded=0;orthogonalLoop=1;jettySize=auto;html=1;" parent="1" source="ykjGO0jz3OLnB_6HCK4Q-7" target="ykjGO0jz3OLnB_6HCK4Q-102" edge="1">
                    <mxGeometry relative="1" as="geometry"/>
                </mxCell>
                <mxCell id="ykjGO0jz3OLnB_6HCK4Q-111" style="edgeStyle=orthogonalEdgeStyle;rounded=0;orthogonalLoop=1;jettySize=auto;html=1;" parent="1" source="ykjGO0jz3OLnB_6HCK4Q-7" target="ykjGO0jz3OLnB_6HCK4Q-103" edge="1">
                    <mxGeometry relative="1" as="geometry"/>
                </mxCell>
                <mxCell id="ykjGO0jz3OLnB_6HCK4Q-7" value="User" style="sketch=0;outlineConnect=0;fontColor=#232F3E;gradientColor=none;fillColor=#232F3D;strokeColor=none;dashed=0;verticalLabelPosition=bottom;verticalAlign=top;align=center;html=1;fontSize=12;fontStyle=0;aspect=fixed;pointerEvents=1;shape=mxgraph.aws4.user;" parent="1" vertex="1">
                    <mxGeometry x="307" y="20" width="40" height="40" as="geometry"/>
                </mxCell>
                <mxCell id="ykjGO0jz3OLnB_6HCK4Q-8" value="Temporal" style="fillColor=none;strokeColor=#5A6C86;dashed=1;verticalAlign=top;fontStyle=0;fontColor=#5A6C86;whiteSpace=wrap;html=1;movable=1;resizable=1;rotatable=1;deletable=1;editable=1;locked=0;connectable=1;align=left;" parent="1" vertex="1">
                    <mxGeometry x="369" y="620" width="400" height="100" as="geometry"/>
                </mxCell>
                <mxCell id="ykjGO0jz3OLnB_6HCK4Q-25" style="edgeStyle=orthogonalEdgeStyle;rounded=0;orthogonalLoop=1;jettySize=auto;html=1;" parent="1" source="ykjGO0jz3OLnB_6HCK4Q-100" target="ykjGO0jz3OLnB_6HCK4Q-19" edge="1">
                    <mxGeometry relative="1" as="geometry">
                        <mxPoint x="414" y="180" as="sourcePoint"/>
                        <Array as="points">
                            <mxPoint x="449" y="114"/>
                            <mxPoint x="449" y="230"/>
                        </Array>
                    </mxGeometry>
                </mxCell>
                <mxCell id="ykjGO0jz3OLnB_6HCK4Q-26" style="edgeStyle=orthogonalEdgeStyle;rounded=0;orthogonalLoop=1;jettySize=auto;html=1;" parent="1" source="ykjGO0jz3OLnB_6HCK4Q-102" target="ykjGO0jz3OLnB_6HCK4Q-20" edge="1">
                    <mxGeometry relative="1" as="geometry">
                        <mxPoint x="484" y="180" as="sourcePoint"/>
                        <Array as="points">
                            <mxPoint x="519" y="114"/>
                            <mxPoint x="519" y="230"/>
                        </Array>
                    </mxGeometry>
                </mxCell>
                <mxCell id="ykjGO0jz3OLnB_6HCK4Q-27" style="edgeStyle=orthogonalEdgeStyle;rounded=0;orthogonalLoop=1;jettySize=auto;html=1;" parent="1" source="ykjGO0jz3OLnB_6HCK4Q-103" target="ykjGO0jz3OLnB_6HCK4Q-23" edge="1">
                    <mxGeometry relative="1" as="geometry">
                        <mxPoint x="554.26" y="180" as="sourcePoint"/>
                        <Array as="points">
                            <mxPoint x="589" y="114"/>
                            <mxPoint x="589" y="230"/>
                        </Array>
                    </mxGeometry>
                </mxCell>
                <mxCell id="ykjGO0jz3OLnB_6HCK4Q-69" style="edgeStyle=orthogonalEdgeStyle;rounded=0;orthogonalLoop=1;jettySize=auto;html=1;" parent="1" source="ykjGO0jz3OLnB_6HCK4Q-13" target="ykjGO0jz3OLnB_6HCK4Q-32" edge="1">
                    <mxGeometry relative="1" as="geometry">
                        <Array as="points">
                            <mxPoint x="729" y="360"/>
                            <mxPoint x="699" y="360"/>
                        </Array>
                    </mxGeometry>
                </mxCell>
                <mxCell id="ykjGO0jz3OLnB_6HCK4Q-71" style="edgeStyle=orthogonalEdgeStyle;rounded=0;orthogonalLoop=1;jettySize=auto;html=1;" parent="1" source="ykjGO0jz3OLnB_6HCK4Q-13" edge="1">
                    <mxGeometry relative="1" as="geometry">
                        <mxPoint x="629" y="400" as="targetPoint"/>
                        <Array as="points">
                            <mxPoint x="729" y="360"/>
                            <mxPoint x="629" y="360"/>
                        </Array>
                    </mxGeometry>
                </mxCell>
                <mxCell id="ykjGO0jz3OLnB_6HCK4Q-72" style="edgeStyle=orthogonalEdgeStyle;rounded=0;orthogonalLoop=1;jettySize=auto;html=1;" parent="1" source="ykjGO0jz3OLnB_6HCK4Q-13" target="ykjGO0jz3OLnB_6HCK4Q-30" edge="1">
                    <mxGeometry relative="1" as="geometry">
                        <Array as="points">
                            <mxPoint x="729" y="360"/>
                            <mxPoint x="559" y="360"/>
                        </Array>
                    </mxGeometry>
                </mxCell>
                <mxCell id="ykjGO0jz3OLnB_6HCK4Q-73" style="edgeStyle=orthogonalEdgeStyle;rounded=0;orthogonalLoop=1;jettySize=auto;html=1;" parent="1" source="ykjGO0jz3OLnB_6HCK4Q-13" target="ykjGO0jz3OLnB_6HCK4Q-29" edge="1">
                    <mxGeometry relative="1" as="geometry">
                        <Array as="points">
                            <mxPoint x="729" y="360"/>
                            <mxPoint x="489" y="360"/>
                        </Array>
                    </mxGeometry>
                </mxCell>
                <mxCell id="ykjGO0jz3OLnB_6HCK4Q-74" style="edgeStyle=orthogonalEdgeStyle;rounded=0;orthogonalLoop=1;jettySize=auto;html=1;" parent="1" source="ykjGO0jz3OLnB_6HCK4Q-13" target="ykjGO0jz3OLnB_6HCK4Q-28" edge="1">
                    <mxGeometry relative="1" as="geometry">
                        <Array as="points">
                            <mxPoint x="729" y="360"/>
                            <mxPoint x="419" y="360"/>
                        </Array>
                    </mxGeometry>
                </mxCell>
                <mxCell id="ykjGO0jz3OLnB_6HCK4Q-13" value="&lt;div style=&quot;line-height: 100%;&quot;&gt;&lt;font style=&quot;font-size: 10px;&quot;&gt;Kong Reverse&lt;br&gt;Proxy&lt;/font&gt;&lt;/div&gt;" style="sketch=0;outlineConnect=0;fontColor=#232F3E;gradientColor=none;fillColor=#232F3D;strokeColor=none;dashed=0;verticalLabelPosition=bottom;verticalAlign=top;align=left;html=1;fontSize=12;fontStyle=0;aspect=fixed;pointerEvents=1;shape=mxgraph.aws4.generic_application;" parent="1" vertex="1">
                    <mxGeometry x="729" y="220" width="40" height="40" as="geometry"/>
                </mxCell>
                <mxCell id="ykjGO0jz3OLnB_6HCK4Q-108" style="edgeStyle=orthogonalEdgeStyle;rounded=0;orthogonalLoop=1;jettySize=auto;html=1;" parent="1" source="ykjGO0jz3OLnB_6HCK4Q-19" target="ykjGO0jz3OLnB_6HCK4Q-104" edge="1">
                    <mxGeometry relative="1" as="geometry">
                        <Array as="points">
                            <mxPoint x="389" y="230"/>
                            <mxPoint x="389" y="290"/>
                            <mxPoint x="662" y="290"/>
                            <mxPoint x="662" y="114"/>
                        </Array>
                    </mxGeometry>
                </mxCell>
                <mxCell id="ykjGO0jz3OLnB_6HCK4Q-19" value="Admin&lt;br&gt;UI" style="sketch=0;outlineConnect=0;fontColor=#232F3E;gradientColor=none;fillColor=#232F3D;strokeColor=none;dashed=0;verticalLabelPosition=bottom;verticalAlign=top;align=center;html=1;fontSize=12;fontStyle=0;aspect=fixed;pointerEvents=1;shape=mxgraph.aws4.generic_application;" parent="1" vertex="1">
                    <mxGeometry x="399" y="210" width="40" height="40" as="geometry"/>
                </mxCell>
                <mxCell id="ykjGO0jz3OLnB_6HCK4Q-107" style="edgeStyle=orthogonalEdgeStyle;rounded=0;orthogonalLoop=1;jettySize=auto;html=1;" parent="1" source="ykjGO0jz3OLnB_6HCK4Q-20" target="ykjGO0jz3OLnB_6HCK4Q-104" edge="1">
                    <mxGeometry relative="1" as="geometry">
                        <Array as="points">
                            <mxPoint x="459" y="230"/>
                            <mxPoint x="459" y="290"/>
                            <mxPoint x="662" y="290"/>
                            <mxPoint x="662" y="114"/>
                        </Array>
                    </mxGeometry>
                </mxCell>
                <mxCell id="ykjGO0jz3OLnB_6HCK4Q-20" value="Customer&lt;br&gt;UI" style="sketch=0;outlineConnect=0;fontColor=#232F3E;gradientColor=none;fillColor=#232F3D;strokeColor=none;dashed=0;verticalLabelPosition=bottom;verticalAlign=top;align=center;html=1;fontSize=12;fontStyle=0;aspect=fixed;pointerEvents=1;shape=mxgraph.aws4.generic_application;" parent="1" vertex="1">
                    <mxGeometry x="469" y="210" width="40" height="40" as="geometry"/>
                </mxCell>
                <mxCell id="ykjGO0jz3OLnB_6HCK4Q-106" style="edgeStyle=orthogonalEdgeStyle;rounded=0;orthogonalLoop=1;jettySize=auto;html=1;" parent="1" source="ykjGO0jz3OLnB_6HCK4Q-23" target="ykjGO0jz3OLnB_6HCK4Q-104" edge="1">
                    <mxGeometry relative="1" as="geometry">
                        <Array as="points">
                            <mxPoint x="529" y="230"/>
                            <mxPoint x="529" y="290"/>
                            <mxPoint x="662" y="290"/>
                            <mxPoint x="662" y="114"/>
                        </Array>
                    </mxGeometry>
                </mxCell>
                <mxCell id="ykjGO0jz3OLnB_6HCK4Q-23" value="Driver&lt;br&gt;UI" style="sketch=0;outlineConnect=0;fontColor=#232F3E;gradientColor=none;fillColor=#232F3D;strokeColor=none;dashed=0;verticalLabelPosition=bottom;verticalAlign=top;align=center;html=1;fontSize=12;fontStyle=0;aspect=fixed;pointerEvents=1;shape=mxgraph.aws4.generic_application;" parent="1" vertex="1">
                    <mxGeometry x="539.26" y="210" width="40" height="40" as="geometry"/>
                </mxCell>
                <mxCell id="ykjGO0jz3OLnB_6HCK4Q-76" style="edgeStyle=orthogonalEdgeStyle;rounded=0;orthogonalLoop=1;jettySize=auto;html=1;" parent="1" source="ykjGO0jz3OLnB_6HCK4Q-28" target="ykjGO0jz3OLnB_6HCK4Q-34" edge="1">
                    <mxGeometry relative="1" as="geometry">
                        <Array as="points">
                            <mxPoint x="449" y="420"/>
                            <mxPoint x="449" y="490"/>
                            <mxPoint x="699" y="490"/>
                        </Array>
                    </mxGeometry>
                </mxCell>
                <mxCell id="ykjGO0jz3OLnB_6HCK4Q-85" style="edgeStyle=orthogonalEdgeStyle;rounded=0;orthogonalLoop=1;jettySize=auto;html=1;" parent="1" source="ykjGO0jz3OLnB_6HCK4Q-28" target="ykjGO0jz3OLnB_6HCK4Q-80" edge="1">
                    <mxGeometry relative="1" as="geometry">
                        <Array as="points">
                            <mxPoint x="399" y="560"/>
                            <mxPoint x="554" y="560"/>
                        </Array>
                    </mxGeometry>
                </mxCell>
                <mxCell id="ykjGO0jz3OLnB_6HCK4Q-28" value="Order&lt;br&gt;Service" style="sketch=0;outlineConnect=0;fontColor=#232F3E;gradientColor=none;fillColor=#232F3D;strokeColor=none;dashed=0;verticalLabelPosition=bottom;verticalAlign=top;align=center;html=1;fontSize=12;fontStyle=0;aspect=fixed;pointerEvents=1;shape=mxgraph.aws4.generic_application;" parent="1" vertex="1">
                    <mxGeometry x="399" y="400" width="40" height="40" as="geometry"/>
                </mxCell>
                <mxCell id="ykjGO0jz3OLnB_6HCK4Q-77" style="edgeStyle=orthogonalEdgeStyle;rounded=0;orthogonalLoop=1;jettySize=auto;html=1;" parent="1" source="ykjGO0jz3OLnB_6HCK4Q-29" target="ykjGO0jz3OLnB_6HCK4Q-34" edge="1">
                    <mxGeometry relative="1" as="geometry">
                        <Array as="points">
                            <mxPoint x="519" y="420"/>
                            <mxPoint x="519" y="490"/>
                            <mxPoint x="699" y="490"/>
                        </Array>
                    </mxGeometry>
                </mxCell>
                <mxCell id="ykjGO0jz3OLnB_6HCK4Q-87" style="edgeStyle=orthogonalEdgeStyle;rounded=0;orthogonalLoop=1;jettySize=auto;html=1;" parent="1" source="ykjGO0jz3OLnB_6HCK4Q-29" target="ykjGO0jz3OLnB_6HCK4Q-80" edge="1">
                    <mxGeometry relative="1" as="geometry">
                        <Array as="points">
                            <mxPoint x="459" y="420"/>
                            <mxPoint x="459" y="560"/>
                            <mxPoint x="554" y="560"/>
                        </Array>
                    </mxGeometry>
                </mxCell>
                <mxCell id="ykjGO0jz3OLnB_6HCK4Q-29" value="Notification&lt;br&gt;Service" style="sketch=0;outlineConnect=0;fontColor=#232F3E;gradientColor=none;fillColor=#232F3D;strokeColor=none;dashed=0;verticalLabelPosition=bottom;verticalAlign=top;align=center;html=1;fontSize=12;fontStyle=0;aspect=fixed;pointerEvents=1;shape=mxgraph.aws4.generic_application;" parent="1" vertex="1">
                    <mxGeometry x="469" y="400" width="40" height="40" as="geometry"/>
                </mxCell>
                <mxCell id="ykjGO0jz3OLnB_6HCK4Q-78" style="edgeStyle=orthogonalEdgeStyle;rounded=0;orthogonalLoop=1;jettySize=auto;html=1;" parent="1" source="ykjGO0jz3OLnB_6HCK4Q-30" target="ykjGO0jz3OLnB_6HCK4Q-34" edge="1">
                    <mxGeometry relative="1" as="geometry">
                        <Array as="points">
                            <mxPoint x="529" y="420"/>
                            <mxPoint x="529" y="490"/>
                            <mxPoint x="699" y="490"/>
                        </Array>
                    </mxGeometry>
                </mxCell>
                <mxCell id="ykjGO0jz3OLnB_6HCK4Q-88" style="edgeStyle=orthogonalEdgeStyle;rounded=0;orthogonalLoop=1;jettySize=auto;html=1;" parent="1" source="ykjGO0jz3OLnB_6HCK4Q-30" target="ykjGO0jz3OLnB_6HCK4Q-80" edge="1">
                    <mxGeometry relative="1" as="geometry">
                        <Array as="points">
                            <mxPoint x="589" y="420"/>
                            <mxPoint x="589" y="560"/>
                            <mxPoint x="554" y="560"/>
                        </Array>
                    </mxGeometry>
                </mxCell>
                <mxCell id="ykjGO0jz3OLnB_6HCK4Q-30" value="Invoice&lt;br&gt;Service" style="sketch=0;outlineConnect=0;fontColor=#232F3E;gradientColor=none;fillColor=#232F3D;strokeColor=none;dashed=0;verticalLabelPosition=bottom;verticalAlign=top;align=center;html=1;fontSize=12;fontStyle=0;aspect=fixed;pointerEvents=1;shape=mxgraph.aws4.generic_application;" parent="1" vertex="1">
                    <mxGeometry x="539.26" y="400" width="40" height="40" as="geometry"/>
                </mxCell>
                <mxCell id="ykjGO0jz3OLnB_6HCK4Q-79" style="edgeStyle=orthogonalEdgeStyle;rounded=0;orthogonalLoop=1;jettySize=auto;html=1;" parent="1" source="ykjGO0jz3OLnB_6HCK4Q-31" target="ykjGO0jz3OLnB_6HCK4Q-34" edge="1">
                    <mxGeometry relative="1" as="geometry">
                        <Array as="points">
                            <mxPoint x="659" y="420"/>
                            <mxPoint x="659" y="490"/>
                            <mxPoint x="699" y="490"/>
                        </Array>
                    </mxGeometry>
                </mxCell>
                <mxCell id="ykjGO0jz3OLnB_6HCK4Q-90" style="edgeStyle=orthogonalEdgeStyle;rounded=0;orthogonalLoop=1;jettySize=auto;html=1;" parent="1" source="ykjGO0jz3OLnB_6HCK4Q-31" target="ykjGO0jz3OLnB_6HCK4Q-80" edge="1">
                    <mxGeometry relative="1" as="geometry">
                        <Array as="points">
                            <mxPoint x="599" y="420"/>
                            <mxPoint x="599" y="560"/>
                            <mxPoint x="554" y="560"/>
                        </Array>
                    </mxGeometry>
                </mxCell>
                <mxCell id="ykjGO0jz3OLnB_6HCK4Q-31" value="Driver&lt;br&gt;Service" style="sketch=0;outlineConnect=0;fontColor=#232F3E;gradientColor=none;fillColor=#232F3D;strokeColor=none;dashed=0;verticalLabelPosition=bottom;verticalAlign=top;align=center;html=1;fontSize=12;fontStyle=0;aspect=fixed;pointerEvents=1;shape=mxgraph.aws4.generic_application;" parent="1" vertex="1">
                    <mxGeometry x="609.26" y="400" width="40" height="40" as="geometry"/>
                </mxCell>
                <mxCell id="ykjGO0jz3OLnB_6HCK4Q-75" style="edgeStyle=orthogonalEdgeStyle;rounded=0;orthogonalLoop=1;jettySize=auto;html=1;" parent="1" source="ykjGO0jz3OLnB_6HCK4Q-32" target="ykjGO0jz3OLnB_6HCK4Q-34" edge="1">
                    <mxGeometry relative="1" as="geometry">
                        <Array as="points">
                            <mxPoint x="729" y="420"/>
                            <mxPoint x="729" y="490"/>
                            <mxPoint x="699" y="490"/>
                        </Array>
                    </mxGeometry>
                </mxCell>
                <mxCell id="ykjGO0jz3OLnB_6HCK4Q-32" value="Chatbot&lt;br&gt;Service" style="sketch=0;outlineConnect=0;fontColor=#232F3E;gradientColor=none;fillColor=#232F3D;strokeColor=none;dashed=0;verticalLabelPosition=bottom;verticalAlign=top;align=center;html=1;fontSize=12;fontStyle=0;aspect=fixed;pointerEvents=1;shape=mxgraph.aws4.generic_application;" parent="1" vertex="1">
                    <mxGeometry x="679.26" y="400" width="40" height="40" as="geometry"/>
                </mxCell>
                <mxCell id="ykjGO0jz3OLnB_6HCK4Q-34" value="Auth&lt;div&gt;&lt;span style=&quot;background-color: transparent; color: light-dark(rgb(35, 47, 62), rgb(189, 199, 212));&quot;&gt;Service&lt;/span&gt;&lt;/div&gt;" style="sketch=0;outlineConnect=0;fontColor=#232F3E;gradientColor=none;fillColor=#232F3D;strokeColor=none;dashed=0;verticalLabelPosition=bottom;verticalAlign=top;align=center;html=1;fontSize=12;fontStyle=0;aspect=fixed;pointerEvents=1;shape=mxgraph.aws4.generic_application;" parent="1" vertex="1">
                    <mxGeometry x="679.26" y="520" width="40" height="40" as="geometry"/>
                </mxCell>
                <mxCell id="ykjGO0jz3OLnB_6HCK4Q-52" value="&lt;font style=&quot;font-size: 10px;&quot;&gt;6000/chatbot&lt;/font&gt;" style="text;html=1;align=center;verticalAlign=middle;whiteSpace=wrap;rounded=0;" parent="1" vertex="1">
                    <mxGeometry x="669.26" y="340" width="60" height="30" as="geometry"/>
                </mxCell>
                <mxCell id="ykjGO0jz3OLnB_6HCK4Q-53" value="&lt;font style=&quot;font-size: 10px;&quot;&gt;6000/driver&lt;/font&gt;" style="text;html=1;align=center;verticalAlign=middle;whiteSpace=wrap;rounded=0;" parent="1" vertex="1">
                    <mxGeometry x="599.26" y="340" width="60" height="30" as="geometry"/>
                </mxCell>
                <mxCell id="ykjGO0jz3OLnB_6HCK4Q-54" value="&lt;font style=&quot;font-size: 10px;&quot;&gt;6000/invoice&lt;/font&gt;" style="text;html=1;align=center;verticalAlign=middle;whiteSpace=wrap;rounded=0;" parent="1" vertex="1">
                    <mxGeometry x="529.52" y="340" width="60" height="30" as="geometry"/>
                </mxCell>
                <mxCell id="ykjGO0jz3OLnB_6HCK4Q-55" value="&lt;font style=&quot;font-size: 10px;&quot;&gt;6000/notification&lt;/font&gt;" style="text;html=1;align=center;verticalAlign=middle;whiteSpace=wrap;rounded=0;" parent="1" vertex="1">
                    <mxGeometry x="459.26" y="340" width="60" height="30" as="geometry"/>
                </mxCell>
                <mxCell id="ykjGO0jz3OLnB_6HCK4Q-56" value="&lt;font style=&quot;font-size: 10px;&quot;&gt;6000/order&lt;/font&gt;" style="text;html=1;align=center;verticalAlign=middle;whiteSpace=wrap;rounded=0;" parent="1" vertex="1">
                    <mxGeometry x="389.26" y="340" width="60" height="30" as="geometry"/>
                </mxCell>
                <mxCell id="ykjGO0jz3OLnB_6HCK4Q-83" style="edgeStyle=orthogonalEdgeStyle;rounded=0;orthogonalLoop=1;jettySize=auto;html=1;" parent="1" source="ykjGO0jz3OLnB_6HCK4Q-80" target="ykjGO0jz3OLnB_6HCK4Q-81" edge="1">
                    <mxGeometry relative="1" as="geometry"/>
                </mxCell>
                <mxCell id="ykjGO0jz3OLnB_6HCK4Q-84" style="edgeStyle=orthogonalEdgeStyle;rounded=0;orthogonalLoop=1;jettySize=auto;html=1;" parent="1" source="ykjGO0jz3OLnB_6HCK4Q-80" target="ykjGO0jz3OLnB_6HCK4Q-82" edge="1">
                    <mxGeometry relative="1" as="geometry"/>
                </mxCell>
                <mxCell id="ykjGO0jz3OLnB_6HCK4Q-80" value="Temporal&lt;br&gt;Orchestrator" style="sketch=0;outlineConnect=0;fontColor=#232F3E;gradientColor=none;fillColor=#232F3D;strokeColor=none;dashed=0;verticalLabelPosition=bottom;verticalAlign=top;align=left;html=1;fontSize=12;fontStyle=0;aspect=fixed;pointerEvents=1;shape=mxgraph.aws4.generic_application;" parent="1" vertex="1">
                    <mxGeometry x="534.26" y="640" width="40" height="40" as="geometry"/>
                </mxCell>
                <mxCell id="ykjGO0jz3OLnB_6HCK4Q-81" value="Temporal&lt;br&gt;Worker" style="sketch=0;outlineConnect=0;fontColor=#232F3E;gradientColor=none;fillColor=#232F3D;strokeColor=none;dashed=0;verticalLabelPosition=bottom;verticalAlign=top;align=center;html=1;fontSize=12;fontStyle=0;aspect=fixed;pointerEvents=1;shape=mxgraph.aws4.generic_application;" parent="1" vertex="1">
                    <mxGeometry x="429" y="640" width="40" height="40" as="geometry"/>
                </mxCell>
                <mxCell id="7" style="edgeStyle=none;html=1;rounded=0;curved=0;" edge="1" parent="1" source="ykjGO0jz3OLnB_6HCK4Q-82" target="3">
                    <mxGeometry relative="1" as="geometry">
                        <Array as="points">
                            <mxPoint x="701" y="660"/>
                        </Array>
                    </mxGeometry>
                </mxCell>
                <mxCell id="ykjGO0jz3OLnB_6HCK4Q-82" value="Temporal&lt;br&gt;Worker" style="sketch=0;outlineConnect=0;fontColor=#232F3E;gradientColor=none;fillColor=#232F3D;strokeColor=none;dashed=0;verticalLabelPosition=bottom;verticalAlign=top;align=center;html=1;fontSize=12;fontStyle=0;aspect=fixed;pointerEvents=1;shape=mxgraph.aws4.generic_application;" parent="1" vertex="1">
                    <mxGeometry x="634" y="640" width="40" height="40" as="geometry"/>
                </mxCell>
                <mxCell id="ykjGO0jz3OLnB_6HCK4Q-93" style="edgeStyle=orthogonalEdgeStyle;rounded=0;orthogonalLoop=1;jettySize=auto;html=1;" parent="1" source="ykjGO0jz3OLnB_6HCK4Q-91" target="JxBHjFyv43aqF_TuD2n9-1" edge="1">
                    <mxGeometry relative="1" as="geometry">
                        <Array as="points">
                            <mxPoint x="119" y="180"/>
                            <mxPoint x="119" y="300"/>
                        </Array>
                    </mxGeometry>
                </mxCell>
                <mxCell id="ykjGO0jz3OLnB_6HCK4Q-91" value="External&lt;br&gt;Users via&lt;div&gt;API&lt;/div&gt;" style="sketch=0;outlineConnect=0;fontColor=#232F3E;gradientColor=none;fillColor=#232F3D;strokeColor=none;dashed=0;verticalLabelPosition=bottom;verticalAlign=top;align=center;html=1;fontSize=12;fontStyle=0;aspect=fixed;pointerEvents=1;shape=mxgraph.aws4.user;" parent="1" vertex="1">
                    <mxGeometry x="69" y="160" width="40" height="40" as="geometry"/>
                </mxCell>
                <mxCell id="ykjGO0jz3OLnB_6HCK4Q-97" style="edgeStyle=orthogonalEdgeStyle;rounded=0;orthogonalLoop=1;jettySize=auto;html=1;" parent="1" target="ykjGO0jz3OLnB_6HCK4Q-28" edge="1">
                    <mxGeometry relative="1" as="geometry">
                        <mxPoint x="329" y="420.0000000000001" as="sourcePoint"/>
                    </mxGeometry>
                </mxCell>
                <mxCell id="ykjGO0jz3OLnB_6HCK4Q-100" value="&lt;div style=&quot;line-height: 90%;&quot;&gt;Port&lt;br&gt;3000&lt;/div&gt;" style="fillColor=#808080;aspect=fixed;sketch=0;pointerEvents=1;shadow=0;dashed=0;html=1;strokeColor=none;labelPosition=center;verticalLabelPosition=bottom;outlineConnect=0;verticalAlign=top;align=center;shape=mxgraph.openstack.neutron_port;" parent="1" vertex="1">
                    <mxGeometry x="394.26" y="89" width="50" height="50" as="geometry"/>
                </mxCell>
                <mxCell id="ykjGO0jz3OLnB_6HCK4Q-102" value="&lt;div style=&quot;line-height: 90%;&quot;&gt;Port&lt;br&gt;4000&lt;/div&gt;" style="fillColor=#808080;aspect=fixed;sketch=0;pointerEvents=1;shadow=0;dashed=0;html=1;strokeColor=none;labelPosition=center;verticalLabelPosition=bottom;outlineConnect=0;verticalAlign=top;align=center;shape=mxgraph.openstack.neutron_port;" parent="1" vertex="1">
                    <mxGeometry x="464.26" y="89" width="50" height="50" as="geometry"/>
                </mxCell>
                <mxCell id="ykjGO0jz3OLnB_6HCK4Q-103" value="&lt;div style=&quot;line-height: 90%;&quot;&gt;Port&lt;br&gt;5000&lt;/div&gt;" style="fillColor=#808080;aspect=fixed;sketch=0;pointerEvents=1;shadow=0;dashed=0;html=1;strokeColor=none;labelPosition=center;verticalLabelPosition=bottom;outlineConnect=0;verticalAlign=top;align=center;shape=mxgraph.openstack.neutron_port;" parent="1" vertex="1">
                    <mxGeometry x="534.26" y="89" width="50" height="50" as="geometry"/>
                </mxCell>
                <mxCell id="ykjGO0jz3OLnB_6HCK4Q-105" style="edgeStyle=orthogonalEdgeStyle;rounded=0;orthogonalLoop=1;jettySize=auto;html=1;" parent="1" source="ykjGO0jz3OLnB_6HCK4Q-104" target="ykjGO0jz3OLnB_6HCK4Q-13" edge="1">
                    <mxGeometry relative="1" as="geometry">
                        <Array as="points">
                            <mxPoint x="779" y="114"/>
                            <mxPoint x="779" y="240"/>
                        </Array>
                    </mxGeometry>
                </mxCell>
                <mxCell id="ykjGO0jz3OLnB_6HCK4Q-104" value="&lt;div style=&quot;line-height: 90%;&quot;&gt;Port&lt;br&gt;6000&lt;/div&gt;" style="fillColor=#808080;aspect=fixed;sketch=0;pointerEvents=1;shadow=0;dashed=0;html=1;strokeColor=none;labelPosition=center;verticalLabelPosition=bottom;outlineConnect=0;verticalAlign=top;align=center;shape=mxgraph.openstack.neutron_port;" parent="1" vertex="1">
                    <mxGeometry x="724" y="89" width="50" height="50" as="geometry"/>
                </mxCell>
                <mxCell id="ykjGO0jz3OLnB_6HCK4Q-112" value="&lt;div style=&quot;line-height: 90%;&quot;&gt;Port&lt;br&gt;7000&lt;/div&gt;" style="fillColor=#808080;aspect=fixed;sketch=0;pointerEvents=1;shadow=0;dashed=0;html=1;strokeColor=none;labelPosition=center;verticalLabelPosition=bottom;outlineConnect=0;verticalAlign=top;align=center;shape=mxgraph.openstack.neutron_port;" parent="1" vertex="1">
                    <mxGeometry x="279" y="395" width="50" height="50" as="geometry"/>
                </mxCell>
                <mxCell id="2" value="External Services" style="fillColor=none;strokeColor=#5A6C86;dashed=1;verticalAlign=top;fontStyle=0;fontColor=#5A6C86;whiteSpace=wrap;html=1;movable=1;resizable=1;rotatable=1;deletable=1;editable=1;locked=0;connectable=1;align=left;" parent="1" vertex="1">
                    <mxGeometry x="369" y="783" width="400" height="100" as="geometry"/>
                </mxCell>
                <mxCell id="3" value="Stripe Payment&lt;br&gt;Service" style="sketch=0;outlineConnect=0;fontColor=#232F3E;gradientColor=none;fillColor=#232F3D;strokeColor=none;dashed=0;verticalLabelPosition=bottom;verticalAlign=top;align=center;html=1;fontSize=12;fontStyle=0;aspect=fixed;pointerEvents=1;shape=mxgraph.aws4.generic_application;" parent="1" vertex="1">
                    <mxGeometry x="679.26" y="801" width="40" height="40" as="geometry"/>
                </mxCell>
            </root>
        </mxGraphModel>
    </diagram>
</mxfile>